<svg width="139" height="36" viewBox="0 0 139 36" fill="none" xmlns="http://www.w3.org/2000/svg">
<path d="M0.377841 28V8.36364H5.00568V28H0.377841ZM2.70455 5.5767C1.97159 5.5767 1.34091 5.33381 0.8125 4.84801C0.284091 4.35369 0.0198864 3.76136 0.0198864 3.07102C0.0198864 2.37216 0.284091 1.77983 0.8125 1.29403C1.34091 0.799715 1.97159 0.552556 2.70455 0.552556C3.44602 0.552556 4.0767 0.799715 4.59659 1.29403C5.125 1.77983 5.3892 2.37216 5.3892 3.07102C5.3892 3.76136 5.125 4.35369 4.59659 4.84801C4.0767 5.33381 3.44602 5.5767 2.70455 5.5767ZM18.3043 35.7727C16.6424 35.7727 15.2148 35.5469 14.0217 35.0952C12.8285 34.652 11.8697 34.0554 11.1452 33.3054C10.4208 32.5554 9.91797 31.7244 9.63672 30.8125L13.8043 29.8026C13.9918 30.1861 14.2646 30.5653 14.6225 30.9403C14.9805 31.3239 15.462 31.6392 16.0671 31.8864C16.6808 32.142 17.4521 32.2699 18.381 32.2699C19.6935 32.2699 20.7802 31.9503 21.641 31.3111C22.5018 30.6804 22.9322 29.6406 22.9322 28.1918V24.4716H22.7021C22.4634 24.9489 22.114 25.4389 21.6538 25.9418C21.2021 26.4446 20.6012 26.8665 19.8512 27.2074C19.1097 27.5483 18.1765 27.7188 17.0515 27.7188C15.543 27.7188 14.1751 27.3651 12.9478 26.6577C11.729 25.9418 10.7575 24.8764 10.033 23.4616C9.31712 22.0384 8.95916 20.2571 8.95916 18.1179C8.95916 15.9616 9.31712 14.142 10.033 12.6591C10.7575 11.1676 11.7333 10.0384 12.9606 9.27131C14.1879 8.49574 15.5558 8.10795 17.0643 8.10795C18.2148 8.10795 19.1609 8.30398 19.9023 8.69602C20.6523 9.07954 21.2489 9.54403 21.6921 10.0895C22.1353 10.6264 22.4719 11.1335 22.7021 11.6108H22.9577V8.36364H27.5217V28.3196C27.5217 29.9986 27.1211 31.3878 26.32 32.4872C25.5188 33.5866 24.4237 34.4091 23.0344 34.9545C21.6452 35.5 20.0685 35.7727 18.3043 35.7727ZM18.3427 24.0881C19.3228 24.0881 20.158 23.8494 20.8484 23.3722C21.5387 22.8949 22.0629 22.2088 22.4208 21.3139C22.7788 20.419 22.9577 19.3452 22.9577 18.0923C22.9577 16.8565 22.7788 15.7741 22.4208 14.8452C22.0714 13.9162 21.5515 13.196 20.8612 12.6847C20.1793 12.1648 19.3398 11.9048 18.3427 11.9048C17.3114 11.9048 16.4506 12.1733 15.7603 12.7102C15.07 13.2472 14.5501 13.9844 14.2006 14.9219C13.8512 15.8509 13.6765 16.9077 13.6765 18.0923C13.6765 19.294 13.8512 20.3466 14.2006 21.25C14.5586 22.1449 15.0827 22.8437 15.7731 23.3466C16.4719 23.8409 17.3285 24.0881 18.3427 24.0881Z" fill="#EBA417"/>
<path d="M44.1665 15.1903V19H32.3796V15.1903H44.1665Z" fill="white"/>
<path d="M53.6619 16.4943V28H49.0341V8.36364H53.4574V11.7003H53.6875C54.1392 10.6009 54.8594 9.72727 55.848 9.07955C56.8452 8.43182 58.0767 8.10795 59.5426 8.10795C60.8977 8.10795 62.0781 8.39773 63.0838 8.97727C64.098 9.55682 64.8821 10.3963 65.4361 11.4957C65.9986 12.5952 66.2756 13.929 66.267 15.4972V28H61.6392V16.2131C61.6392 14.9006 61.2983 13.8736 60.6165 13.1321C59.9432 12.3906 59.0099 12.0199 57.8168 12.0199C57.0071 12.0199 56.2869 12.1989 55.6562 12.5568C55.0341 12.9062 54.544 13.4134 54.1861 14.0781C53.8366 14.7429 53.6619 15.5483 53.6619 16.4943ZM79.6648 28.3835C77.696 28.3835 75.9957 27.9744 74.5639 27.1562C73.1406 26.3295 72.0455 25.1619 71.2784 23.6534C70.5114 22.1364 70.1278 20.3509 70.1278 18.2969C70.1278 16.277 70.5114 14.5043 71.2784 12.9787C72.054 11.4446 73.1364 10.2514 74.5256 9.39915C75.9148 8.53835 77.5469 8.10795 79.4219 8.10795C80.6321 8.10795 81.7741 8.30398 82.848 8.69602C83.9304 9.07954 84.8849 9.67614 85.7116 10.4858C86.5469 11.2955 87.2031 12.3267 87.6804 13.5795C88.1577 14.8239 88.3963 16.3068 88.3963 18.0284V19.4474H72.3011V16.3281H83.9602C83.9517 15.4418 83.7599 14.6534 83.3849 13.9631C83.0099 13.2642 82.4858 12.7145 81.8125 12.3139C81.1477 11.9134 80.3722 11.7131 79.4858 11.7131C78.5398 11.7131 77.7088 11.9432 76.9929 12.4034C76.277 12.8551 75.7188 13.4517 75.3182 14.1932C74.9261 14.9261 74.7259 15.7315 74.7173 16.6094V19.3324C74.7173 20.4744 74.9261 21.4545 75.3438 22.2727C75.7614 23.0824 76.3452 23.7045 77.0952 24.1392C77.8452 24.5653 78.723 24.7784 79.7287 24.7784C80.402 24.7784 81.0114 24.6847 81.5568 24.4972C82.1023 24.3011 82.5753 24.0156 82.9759 23.6406C83.3764 23.2656 83.679 22.8011 83.8835 22.2472L88.2045 22.733C87.9318 23.875 87.4119 24.8722 86.6449 25.7244C85.8864 26.5682 84.9148 27.2244 83.7301 27.6932C82.5455 28.1534 81.1903 28.3835 79.6648 28.3835ZM96.2585 28L90.7102 8.36364H95.4276L98.8793 22.1705H99.0582L102.587 8.36364H107.253L110.781 22.0938H110.973L114.374 8.36364H119.104L113.543 28H108.723L105.041 14.7301H104.773L101.091 28H96.2585ZM137.855 13.554L133.636 14.0142C133.517 13.5881 133.308 13.1875 133.01 12.8125C132.72 12.4375 132.328 12.1349 131.833 11.9048C131.339 11.6747 130.734 11.5597 130.018 11.5597C129.055 11.5597 128.245 11.7685 127.589 12.1861C126.941 12.6037 126.622 13.1449 126.63 13.8097C126.622 14.3807 126.831 14.8452 127.257 15.2031C127.691 15.5611 128.407 15.8551 129.404 16.0852L132.754 16.8011C134.612 17.2017 135.993 17.8366 136.896 18.706C137.808 19.5753 138.268 20.7131 138.277 22.1193C138.268 23.3551 137.906 24.446 137.19 25.392C136.483 26.3295 135.498 27.0625 134.237 27.5909C132.975 28.1193 131.527 28.3835 129.89 28.3835C127.487 28.3835 125.552 27.8807 124.086 26.875C122.62 25.8608 121.747 24.4503 121.466 22.6435L125.978 22.2088C126.183 23.0952 126.618 23.7642 127.282 24.2159C127.947 24.6676 128.812 24.8935 129.877 24.8935C130.977 24.8935 131.859 24.6676 132.524 24.2159C133.197 23.7642 133.534 23.206 133.534 22.5412C133.534 21.9787 133.316 21.5142 132.882 21.1477C132.456 20.7812 131.791 20.5 130.887 20.304L127.538 19.6009C125.654 19.2088 124.261 18.5483 123.358 17.6193C122.454 16.6818 122.007 15.4972 122.015 14.0653C122.007 12.8551 122.335 11.8068 123 10.9205C123.673 10.0256 124.606 9.33523 125.799 8.84943C127.001 8.35511 128.386 8.10795 129.954 8.10795C132.255 8.10795 134.066 8.59801 135.387 9.57812C136.717 10.5582 137.539 11.8835 137.855 13.554Z" fill="#61DAFD"/>
</svg>
